<?xml version="1.0" ?><svg height="1270mm" id="svg2" version="1.1" viewBox="0 0 4500 4500" width="1270mm" xmlns="http://www.w3.org/2000/svg" xmlns:cc="http://creativecommons.org/ns#" xmlns:dc="http://purl.org/dc/elements/1.1/" xmlns:inkscape="http://www.inkscape.org/namespaces/inkscape" xmlns:rdf="http://www.w3.org/1999/02/22-rdf-syntax-ns#" xmlns:sodipodi="http://sodipodi.sourceforge.net/DTD/sodipodi-0.dtd" xmlns:svg="http://www.w3.org/2000/svg"><defs id="defs4"/><g id="layer1" transform="translate(5374.6106,7037.8337)"><g id="g5606" transform="translate(-8118.7078,-12775.634)"><path d="m 11403.533,10565.811 a 75.0075,75.0075 0 0 0 -51.929,21.955 l -1013.893,1013.892 a 75.0075,75.0075 0 0 0 -21.963,52.17 l -8.072,701.531 -827.967,737.317 a 75.0075,75.0075 0 0 0 -10.6465,11.717 c -73.5502,100.498 -113.2395,223.542 -112.2773,348.076 0.5909,76.451 16.3426,152.389 46.2089,222.767 a 75.0075,75.0075 0 0 0 41.5723,40.491 c 113.2175,44.561 239.4726,50.833 356.5488,17.711 62.7827,-17.762 122.1723,-46.504 175.0567,-84.719 a 75.0075,75.0075 0 0 0 12.2187,-11.063 l 755.1934,-852.681 680.728,30.451 a 75.0075,75.0075 0 0 0 56.385,-21.893 l 1038.338,-1038.336 a 75.0075,75.0075 0 0 0 0,-106.066 L 11457.67,10587.766 a 75.0075,75.0075 0 0 0 -54.137,-21.955 z m 1.104,181.054 93.828,93.828 -363.848,363.846 -93.828,-93.828 363.848,-363.846 z m 199.894,199.895 109.865,109.865 -363.845,363.848 -109.867,-109.868 363.847,-363.845 z m 215.932,215.931 109.867,109.868 -363.848,363.845 -109.865,-109.865 363.846,-363.848 z m -885.738,54.086 950.683,950.684 a 75.0075,75.0075 0 0 0 4.78,4.451 l -319.887,319.887 a 75.0075,75.0075 0 0 0 -4.44,-4.791 l -950.683,-950.684 319.547,-319.547 z m 1101.671,161.848 109.866,109.867 -363.846,363.846 -109.867,-109.867 363.847,-363.846 z m 215.932,215.932 107.608,107.607 -364.018,364.018 a 75.0075,75.0075 0 0 0 -4.443,-4.786 l -102.993,-102.992 363.846,-363.847 z m -1743.217,47.834 950.684,950.683 a 75.0075,75.0075 0 0 0 4.781,4.449 l -66.576,66.577 -683.475,-30.575 a 75.0075,75.0075 0 0 0 -59.496,25.198 l -772.9255,872.701 c -37.0252,25.712 -78.4699,45.413 -121.8223,57.678 -74.4454,21.061 -156.1682,19.984 -230.4843,-2.465 -14.7231,-43.514 -22.6613,-89.483 -23.0157,-135.328 -0.6883,-89.097 27.787,-179.515 79.1661,-252.385 l 846.2207,-753.57 a 75.0075,75.0075 0 0 0 25.117,-55.147 l 8.102,-704.092 43.724,-43.724 z m -697.7243,1564.652 a 75.0075,75.0075 0 0 0 -51.5586,22.691 l -102.666,102.666 a 75.0075,75.0075 0 1 0 106.0645,106.067 l 102.666,-102.666 a 75.0075,75.0075 0 0 0 -54.5059,-128.758 z" id="path4751" style="color:#000000;font-style:normal;font-variant:normal;font-weight:normal;font-stretch:normal;font-size:medium;line-height:normal;font-family:sans-serif;text-indent:0;text-align:start;text-decoration:none;text-decoration-line:none;text-decoration-style:solid;text-decoration-color:#000000;letter-spacing:normal;word-spacing:normal;text-transform:none;direction:ltr;block-progression:tb;writing-mode:lr-tb;baseline-shift:baseline;text-anchor:start;white-space:normal;clip-rule:nonzero;display:inline;overflow:visible;visibility:visible;opacity:1;isolation:auto;mix-blend-mode:normal;color-interpolation:sRGB;color-interpolation-filters:linearRGB;solid-color:#000000;solid-opacity:1;fill:#6c6da7;fill-opacity:1;fill-rule:evenodd;stroke:none;stroke-width:150;stroke-linecap:round;stroke-linejoin:round;stroke-miterlimit:4;stroke-dasharray:none;stroke-dashoffset:0;stroke-opacity:1;color-rendering:auto;image-rendering:auto;shape-rendering:auto;text-rendering:auto;enable-background:accumulate" transform="translate(-5954.7863,-4172.3044)"/><path d="m 10934.725,11216.777 -319.547,319.547 950.683,950.684 a 75.0075,75.0075 0 0 1 4.44,4.791 l 319.887,-319.887 a 75.0075,75.0075 0 0 1 -4.78,-4.451 l -950.683,-950.684 z" id="path5597" style="fill:#f2a2bb;fill-opacity:1;fill-rule:evenodd;stroke:none;stroke-width:1px;stroke-linecap:butt;stroke-linejoin:miter;stroke-opacity:1" transform="translate(-5954.7863,-4172.3044)"/></g></g></svg>